<svg id="Layer_1" data-name="Layer 1"
    xmlns="http://www.w3.org/2000/svg" viewBox="0 0 129 129">
    <g id="threads">
        <path d="M66,65.61c-7.24.42-9.64,3.92-9.47,7.06.22,4.24,4.8,6.21,9.2,6s9.21-1.93,10-12.35a34.32,34.32,0,0,0-7.33-.75C67.62,65.54,66.8,65.56,66,65.61Z"/>
        <path d="M64.5,0A64.5,64.5,0,1,0,129,64.5,64.5,64.5,0,0,0,64.5,0Zm-21,88.68c4.73,6,12,9.1,21.63,9.17,8.67-.06,14.41-2.12,19.19-6.9A14.7,14.7,0,0,0,87.9,74.77a12.93,12.93,0,0,0-5.39-5.9,22,22,0,0,1-4.18,10.94c-2.87,3.67-7,5.67-12.25,6a17.87,17.87,0,0,1-10.78-2.7,12.56,12.56,0,0,1-5.8-10c-.43-8.14,6-14,16.08-14.58a43.87,43.87,0,0,1,10,.48A11.84,11.84,0,0,0,73.09,53c-1.7-2-4.32-3-7.8-3h-.1a10.34,10.34,0,0,0-9,4.45l-5.81-4c3.24-4.91,8.5-7.61,14.82-7.61h.14c10.57.06,16.87,6.66,17.49,18.18.36.15.71.31,1.06.48A20.72,20.72,0,0,1,94.31,71.9a21.91,21.91,0,0,1-5.12,24.16c-6.11,6.11-13.54,8.87-24.07,8.94h0c-11.85-.08-21-4.07-27.08-11.85-5.44-6.92-8.25-16.55-8.34-28.62v-.06c.09-12.07,2.9-21.7,8.34-28.62C44.12,28.07,53.23,24.08,65.08,24h0C77,24.08,86.2,28.05,92.5,35.8a36.78,36.78,0,0,1,6.84,13.78L92.53,51.4a30,30,0,0,0-5.42-11c-4.91-6-12.32-9.14-22-9.21S48.2,34.3,43.47,40.32C39,46,36.75,54.09,36.66,64.5,36.75,74.91,39,83.05,43.47,88.68Z"/>
    </g>
</svg>