<svg xmlns="http://www.w3.org/2000/svg" viewBox="0 0 129 129">
    <path d="M78,59.32c-4.08,0-7.29,3.74-7.29,8.29S74,75.89,78,75.89s7.28-3.73,7.28-8.28S82,59.32,78,59.32Z"/>
    <path d="M51,59.32c-4.07,0-7.28,3.74-7.28,8.29S47,75.89,51,75.89s7.29-3.73,7.29-8.28S55.12,59.32,51,59.32Z"/>
    <path d="M64.5,0A64.5,64.5,0,1,0,129,64.5,64.5,64.5,0,0,0,64.5,0Zm40.16,85.34A66.58,66.58,0,0,1,84.15,95.85a50.46,50.46,0,0,1-4.39-7.23,43.4,43.4,0,0,0,6.92-3.37c-.57-.43-1.14-.88-1.69-1.34a47.26,47.26,0,0,1-41,0c-.55.46-1.11.91-1.69,1.34a42.48,42.48,0,0,0,6.91,3.37,51.27,51.27,0,0,1-4.39,7.22,66.83,66.83,0,0,1-20.5-10.5c-1.43-15.36,1.44-30.95,12-46.93a65.62,65.62,0,0,1,16.73-5.26,49.2,49.2,0,0,1,2.16,4.44,61.82,61.82,0,0,1,18.52,0,49.05,49.05,0,0,1,2.14-4.44A65.73,65.73,0,0,1,92.61,38.4C101.78,52.09,106.34,67.53,104.66,85.34Z"/>
</svg>