<svg xmlns="http://www.w3.org/2000/svg" viewBox="0 0 129 129">
    <path d="M96.07,40.61a13.45,13.45,0,0,0-7.68-7.68,22.29,22.29,0,0,0-7.52-1.4c-4.28-.19-5.56-.23-16.37-.23s-12.09,0-16.37.23a22.29,22.29,0,0,0-7.52,1.4,13.45,13.45,0,0,0-7.68,7.68,22.29,22.29,0,0,0-1.4,7.52c-.19,4.28-.23,5.56-.23,16.37s0,12.09.23,16.37a22.29,22.29,0,0,0,1.4,7.52,13.45,13.45,0,0,0,7.68,7.68,22.29,22.29,0,0,0,7.52,1.4c4.27.19,5.56.23,16.37.23s12.1,0,16.37-.23a22.29,22.29,0,0,0,7.52-1.4,13.45,13.45,0,0,0,7.68-7.68,22.29,22.29,0,0,0,1.4-7.52c.19-4.28.23-5.56.23-16.37s0-12.09-.23-16.37A22.29,22.29,0,0,0,96.07,40.61ZM64.5,85.3A20.8,20.8,0,1,1,85.3,64.5,20.8,20.8,0,0,1,64.5,85.3ZM86.12,47.74A4.86,4.86,0,1,1,91,42.88,4.85,4.85,0,0,1,86.12,47.74Z"/>
    <circle cx="64.5" cy="64.5" r="13.5" transform="translate(-9.5 11.16) rotate(-9.22)"/>
    <path d="M64.5,0A64.5,64.5,0,1,0,129,64.5,64.5,64.5,0,0,0,64.5,0Zm40.26,81.2A29.84,29.84,0,0,1,102.87,91,20.71,20.71,0,0,1,91,102.87a29.58,29.58,0,0,1-9.83,1.89c-4.32.19-5.7.24-16.7.24s-12.38,0-16.7-.24A29.58,29.58,0,0,1,38,102.87,20.71,20.71,0,0,1,26.13,91a29.58,29.58,0,0,1-1.89-9.83c-.19-4.32-.24-5.7-.24-16.7s.05-12.38.24-16.7A29.58,29.58,0,0,1,26.13,38,20.71,20.71,0,0,1,38,26.13a29.58,29.58,0,0,1,9.83-1.89c4.32-.19,5.7-.24,16.7-.24s12.38.05,16.7.24A29.58,29.58,0,0,1,91,26.13,20.71,20.71,0,0,1,102.87,38a29.84,29.84,0,0,1,1.89,9.83c.19,4.32.24,5.7.24,16.7S105,76.88,104.76,81.2Z"/>
</svg>